<?xml version="1.0" encoding="iso-8859-1"?>
<!-- Generator: Adobe Illustrator 19.0.0, SVG Export Plug-In . SVG Version: 6.00 Build 0)  -->
<svg xmlns="http://www.w3.org/2000/svg" xmlns:xlink="http://www.w3.org/1999/xlink" version="1.1" id="Layer_1" x="0px" y="0px" viewBox="0 0 512 512" style="enable-background:new 0 0 512 512;" xml:space="preserve" width="512px" height="512px">
<g transform="translate(1 1)">
	<g>
		<g>
			<path d="M436.256,14.36c-2.56-3.413-5.973-6.827-11.093-7.68l-15.36-3.413c-9.387-2.56-18.773,3.413-21.333,12.8l-7.392,28.224     l-0.288-0.063c-4.267-1.707-9.387,1.707-10.24,5.973l-0.6,2.497l-27.56,6.89c-2.56,0.853-5.12,3.413-5.973,5.973l-34.133,110.933     c-0.853,4.267,1.707,8.533,5.973,10.24c0.853,0,1.707,0,2.56,0c3.413,0,6.827-2.56,8.533-5.973l31.573-105.813l14.579-3.749     l-35.978,149.669h-61.374v-102.4c5.12,0,8.533-3.413,8.533-8.533v-76.8h8.533v51.2c0,5.12,3.413,8.533,8.533,8.533     s8.533-3.413,8.533-8.533V24.6c0-5.12-3.413-8.533-8.533-8.533h-17.067V7.533c0-5.12-3.413-8.533-8.533-8.533h-51.2     c-5.12,0-8.533,3.413-8.533,8.533v102.4c0,5.12,3.413,8.533,8.533,8.533v102.4h-15.843L147.829,96.28     c-0.678-1.694-1.898-2.977-3.385-3.811L85.536,18.627c-1.707-2.56-5.973-4.267-9.387-2.56s-5.973,5.12-5.12,9.387l13.653,96.427     c0,1.637,0.703,2.923,1.876,4.086l40.778,94.901h-4.253c-5.12,0-8.533,3.413-8.533,8.533v34.133v204.8v8.533     c0,18.773,15.36,34.133,34.133,34.133h238.933c18.773,0,34.133-15.36,34.133-34.133v-8.533v-204.8V229.4     c0-5.12-3.413-8.533-8.533-8.533h-14.52l38.413-154.453c0.853-2.56,0-5.12-0.853-6.827c-0.726-2.177-2.075-3.118-4.035-3.876     l6.595-27.698C439.669,22.893,438.816,18.627,436.256,14.36z M405.536,20.333c0-0.853,0-0.853,0.853-0.853l15.36,4.267V24.6     l-5.973,27.307l-17.92-4.267L405.536,20.333z M225.483,16.067h34.133V101.4h-34.133V16.067z M234.016,118.467h17.067v102.4     h-17.067V118.467z M126.115,96.648l-26.099,11.389l-7.653-54.423L126.115,96.648z M104.332,125.345l15.76-6.877l15.79-6.828     l46.933,109.227h-36.693L104.332,125.345z M404.683,459.8h-77.254c31.08-19.619,51.654-54.258,51.654-93.867     s-20.574-74.248-51.654-93.867h77.254V459.8z M362.016,365.933c0,52.053-41.813,93.867-93.867,93.867     s-93.867-41.813-93.867-93.867s41.813-93.867,93.867-93.867S362.016,313.88,362.016,365.933z M157.216,365.933     c0,39.609,20.574,74.248,51.654,93.867h-77.254V272.067h77.254C177.79,291.685,157.216,326.324,157.216,365.933z      M387.616,493.933H148.683c-9.387,0-17.067-7.68-17.067-17.067h273.067C404.683,486.253,397.003,493.933,387.616,493.933z      M404.683,255H131.616v-17.067h8.533h55.467h29.867h34.133h76.8h51.2h17.067V255z M347.509,220.867L384.312,65.29     c0.601-0.615,1.107-1.336,1.513-2.122l32.398,7.112l-37.434,150.586H347.509z" fill="#FFFFFF"/>
			<path d="M189.643,341.187c-0.853,2.56,0,5.973,2.56,8.533l31.573,30.72l-7.68,43.52c-0.853,3.413,0.853,6.827,3.413,8.533     c1.707,0.853,3.413,1.707,5.12,1.707c1.707,0,3.413-0.853,4.267-1.707l39.253-20.48l38.4,21.333     c3.413,1.707,6.827,0.853,9.387-0.853s4.267-5.12,3.413-8.533l-7.68-43.52l31.573-30.72c2.56-1.707,3.413-5.12,2.56-8.533     c-0.853-3.413-3.413-5.12-6.827-5.973l-44.373-6.827L274.976,293.4c-2.56-5.12-11.093-5.12-14.507,0l-19.627,34.987     l-44.373,6.827C193.056,336.067,190.496,337.773,189.643,341.187z M247.669,344.6c2.56,0,4.267-1.707,5.973-4.267l14.507-25.6     l14.507,25.6c0.853,2.56,3.413,4.267,5.973,4.267l30.72,4.267l-21.333,22.187c-1.707,1.707-3.413,5.12-2.56,7.68l5.12,30.72     l-28.16-14.507c-1.707-0.853-2.56-0.853-4.267-0.853c-1.707,0-2.56,0-3.413,0.853l-28.16,14.507l5.12-30.72     c0-2.56-0.853-5.973-2.56-7.68l-22.187-22.187L247.669,344.6z" fill="#FFFFFF"/>
		</g>
	</g>
</g>
<g>
</g>
<g>
</g>
<g>
</g>
<g>
</g>
<g>
</g>
<g>
</g>
<g>
</g>
<g>
</g>
<g>
</g>
<g>
</g>
<g>
</g>
<g>
</g>
<g>
</g>
<g>
</g>
<g>
</g>
</svg>
