<?xml version="1.0" encoding="iso-8859-1"?>
<!-- Generator: Adobe Illustrator 16.0.0, SVG Export Plug-In . SVG Version: 6.00 Build 0)  -->
<!DOCTYPE svg PUBLIC "-//W3C//DTD SVG 1.1//EN" "http://www.w3.org/Graphics/SVG/1.1/DTD/svg11.dtd">
<svg xmlns="http://www.w3.org/2000/svg" xmlns:xlink="http://www.w3.org/1999/xlink" version="1.1" id="Capa_1" x="0px" y="0px" width="512px" height="512px" viewBox="0 0 327.678 327.678" style="enable-background:new 0 0 327.678 327.678;" xml:space="preserve">
<g>
	<g>
		<polygon points="183.272,297.468 175.961,327.678 201.358,309.856 183.22,297.403   " fill="#FFFFFF"/>
		<polygon points="243.556,221.832 237.55,217.694 185.961,292.971 191.981,297.084 191.974,297.084 205.064,306.05 256.66,230.807     243.563,221.832   " fill="#FFFFFF"/>
		<path d="M255.431,211.236c-7.826-4.962-14.301,2.156-14.301,2.156l18.212,12.471C259.342,225.859,263.969,217.622,255.431,211.236    z" fill="#FFFFFF"/>
		<path d="M61.02,87.496c2.084,0.452,4.02,0.424,9.962-4.143c2.639-2.024,6.54-5.441,10.145-10.203l1.574-2.096    c13.492-17.946,45.078-59.955,90.705-57.677c37.623,2.743,64.292,31.157,77.125,82.171c0.435,1.731,0.698,2.794,0.992,3.614    c1.958,8.343,5.25,18.733,9.989,22.153c1.174,0.849,2.539,1.251,3.885,1.251c2.057,0,4.093-0.95,5.386-2.75    c2.077-2.866,1.523-6.845-1.197-9.042c-1.308-1.696-3.774-8.797-5.243-15.145c-0.085-0.376-0.209-0.741-0.359-1.099    c-0.123-0.438-0.362-1.382-0.574-2.231c-2.033-8.085-7.437-29.562-20.537-49.765C225.95,16.46,202.877,2.188,174.282,0.12    c-0.041-0.007-0.089-0.007-0.137-0.007C121.443-2.575,86.854,43.432,72.082,63.067l-1.552,2.069    c-4.043,5.343-8.821,8.671-10.467,9.637c-0.554,0.221-1.093,0.512-1.591,0.896c-2.067,1.559-3.08,4.237-2.524,6.764    C56.506,84.962,58.489,86.942,61.02,87.496z" fill="#FFFFFF"/>
		<path d="M227.386,112.972c5.014-12.523,5.141-25.462,0.329-35.495c-4.277-8.954-12.266-15.441-23.086-18.755    c-15.883-4.861-35.139,3.962-52.782,24.172c-0.221,0.245-25.333,26.657-51.706,42.804c-0.197,0.117-19.498,11.699-39.659,17.193    c-3.539,0.957-5.628,4.611-4.663,8.15c0.963,3.541,4.611,5.633,8.157,4.654c21.928-5.961,42.182-18.11,43.068-18.642    c28.606-17.515,54.551-45.125,54.771-45.378c10.714-12.272,26.558-24.036,38.919-20.251c7.279,2.231,12.323,6.196,14.999,11.784    c3.203,6.687,2.954,15.742-0.685,24.825c-6.766,16.912-27.842,37.329-59.34,57.506c-15.798,10.119-55.567,34.957-83.658,46.955    c-3.374,1.444-4.938,5.346-3.498,8.72c1.08,2.519,3.532,4.031,6.112,4.031c0.869,0,1.759-0.171,2.606-0.534    c29.006-12.408,69.53-37.691,85.604-47.985C186.793,161.415,217.404,137.92,227.386,112.972z" fill="#FFFFFF"/>
		<path d="M120.41,63.376c-3.013,3.325-5.722,6.893-8.637,10.296c-3.812,4.46-7.986,8.624-12.339,12.559    c-4.478,4.043-8.102,6.938-13.382,9.972c-5.604,3.21-11.315,6.463-17.123,9.295c-1.994,0.97-3.715,1.6-5.961,2.277    c-3.458,1.04-5.612,4.618-4.632,8.172c0.939,3.424,4.702,5.681,8.172,4.639c6.792-2.046,12.948-5.544,19.074-9.026    c5.183-2.945,10.325-5.593,15.086-9.212c9.279-7.058,17.261-15.29,24.604-24.308c2.976-3.655,6.157-7.13,9.476-10.47    c1.815-1.822,3.689-3.578,5.602-5.299c0.996-0.89,2.009-1.766,3.036-2.628c0.515-0.43,1.04-0.861,1.571-1.292    c0.131-0.109,1.167-0.926,1.425-1.136c4.625-3.545,9.557-6.692,14.743-9.356c4.896-2.519,9.814-4.279,15.776-5.521    c1.974-0.411,2.405-0.454,3.884-0.611c3.6-0.368,6.646-2.736,6.646-6.641c0-3.34-3.038-7.015-6.646-6.644    C156.771,30.933,136.232,45.946,120.41,63.376z" fill="#FFFFFF"/>
		<path d="M68.711,190.574c14.431-4.949,88.529-32.624,130.018-90.785c2.129-2.984,1.438-7.124-1.543-9.261    c-2.994-2.128-7.139-1.437-9.274,1.545c-39.134,54.866-109.76,81.208-123.518,85.941c-0.294,0.099-0.476,0.164-0.539,0.185    c-3.431,1.307-5.163,5.14-3.862,8.569c1.006,2.655,3.535,4.284,6.216,4.284c0.75,0,1.518-0.123,2.264-0.391L68.711,190.574z" fill="#FFFFFF"/>
		<path d="M179.856,205.33c5.64-0.965,19.445,8.854,30.536,16.755c2.604,1.852,5.226,3.717,7.851,5.533l7.508-10.95    c-2.549-1.773-5.109-3.59-7.651-5.4c-15.776-11.245-29.396-20.954-40.501-19.045c-8.344,1.444-22.915,10.76-45.921,25.92    c-16.583,10.938-35.383,23.325-43.559,25.529c-3.543,0.958-5.641,4.6-4.688,8.138c0.799,2.971,3.475,4.921,6.41,4.921    c0.57,0,1.151-0.075,1.727-0.226c10.251-2.765,28.308-14.667,47.424-27.261C154.433,219.066,173.641,206.404,179.856,205.33z" fill="#FFFFFF"/>
		<path d="M197.525,257.853l7.521-10.975c-14.746-8.99-24.612-14.24-31.881-12.991c-8.213,1.424-25.46,13.148-54.416,34.29    c-3.547,2.584-6.606,4.818-8.727,6.321c-2.996,2.114-3.711,6.259-1.595,9.26c1.297,1.831,3.347,2.807,5.433,2.807    c1.324,0,2.662-0.391,3.829-1.212c2.208-1.561,5.306-3.826,8.897-6.447c11.519-8.411,42.132-30.758,48.778-31.908    C178.686,246.765,188.973,252.665,197.525,257.853z" fill="#FFFFFF"/>
		<path d="M169.286,275.723c-11.62,2.013-30.131,20.622-33.723,24.321c-2.555,2.646-2.484,6.845,0.154,9.408    c1.29,1.238,2.953,1.868,4.615,1.868c1.738,0,3.47-0.678,4.774-2.026c8.896-9.191,21.537-19.633,26.441-20.478    c1.287-0.227,2.765,0.007,4.38,0.537l7.69-11.218C178.874,275.946,174.182,274.875,169.286,275.723z" fill="#FFFFFF"/>
		<path d="M268.853,158.559c-5.537-2.333-11.324-4.796-15.988-8.672c-5.134-4.272-7.519-9.868-8.586-16.344    c-1.387-8.439-14.192-4.848-12.806,3.532c2.84,17.227,15.522,26.556,30.676,32.952c3.33,1.416,7.08,1.051,9.086-2.382    C272.887,164.835,272.186,159.979,268.853,158.559z" fill="#FFFFFF"/>
		<path d="M210.96,157.417c-3.183,0.876-5.996,4.812-4.638,8.181c6.52,16.063,19.996,28.89,35.725,36.371    c2.272-0.828,4.846-1.424,7.751-1.424c3.46,0,6.8,0.835,9.969,2.402c1.725-3.381,0.914-8.268-3.806-9.719    c-4.986-1.537-8.774-3.48-14.051-6.604c-9.672-5.716-18.487-13.99-22.778-24.565C217.777,158.711,214.766,156.377,210.96,157.417z    " fill="#FFFFFF"/>
	</g>
</g>
<g>
</g>
<g>
</g>
<g>
</g>
<g>
</g>
<g>
</g>
<g>
</g>
<g>
</g>
<g>
</g>
<g>
</g>
<g>
</g>
<g>
</g>
<g>
</g>
<g>
</g>
<g>
</g>
<g>
</g>
</svg>
