<?xml version="1.0" encoding="utf-8"?>
<!-- Generator: Adobe Illustrator 19.2.1, SVG Export Plug-In . SVG Version: 6.00 Build 0)  -->
<svg version="1.1" id="Capa_1" xmlns="http://www.w3.org/2000/svg" xmlns:xlink="http://www.w3.org/1999/xlink" x="0px" y="0px"
	 viewBox="0 0 512 512" style="enable-background:new 0 0 512 512;" xml:space="preserve">
<style type="text/css">
	.st0{fill:#FFFFFF;}
</style>
<g>
	<path class="st0" d="M454.6,245.4c-21.2,0-39.7-11.5-49.6-28.6c-10,17.1-28.5,28.6-49.6,28.6s-39.7-11.5-49.6-28.6
		c-9.9,17.1-28.5,28.6-49.6,28.6s-39.7-11.5-49.6-28.6c-10,17.1-28.5,28.6-49.7,28.6c-21.2,0-39.7-11.5-49.6-28.6
		c-10,17.1-28.5,28.6-49.6,28.6C25.8,245.4,0,219.7,0,188v-76.4c0-1,0.2-1.9,0.5-2.8l36.7-93.9c1.2-3,4-4.9,7.2-4.9h423.1
		c3.2,0,6.1,2,7.2,4.9l36.7,93.9c0.4,0.9,0.5,1.9,0.5,2.8V188C512,219.7,486.2,245.4,454.6,245.4z M405,180.3c4.3,0,7.8,3.5,7.8,7.8
		c0,23.1,18.8,41.9,41.9,41.9c23.1,0,41.9-18.8,41.9-41.9v-74.9l-34.2-87.6H49.7l-34.2,87.6V188c0,23.1,18.8,41.9,41.9,41.9
		c23.1,0,41.9-18.8,41.9-41.9c0-4.3,3.5-7.8,7.8-7.8c4.3,0,7.8,3.5,7.8,7.8c0,23.1,18.8,41.9,41.9,41.9c23.1,0,41.9-18.8,41.9-41.9
		c0-4.3,3.5-7.8,7.8-7.8s7.8,3.5,7.8,7.8c0,23.1,18.8,41.9,41.9,41.9c23.1,0,41.9-18.8,41.9-41.9c0-4.3,3.5-7.8,7.8-7.8
		s7.8,3.5,7.8,7.8c0,23.1,18.8,41.9,41.9,41.9s41.9-18.8,41.9-41.9C397.2,183.7,400.7,180.3,405,180.3z"/>
	<path class="st0" d="M440.5,502.1H71.5c-18.6,0-33.7-15.1-33.7-33.7V304.9c0-4.3,3.5-7.8,7.8-7.8s7.8,3.5,7.8,7.8v163.5
		c0,10,8.2,18.2,18.2,18.2h368.9c10.1,0,18.2-8.2,18.2-18.2V304.9c0-4.3,3.5-7.8,7.8-7.8s7.8,3.5,7.8,7.8v163.5
		C474.2,486.9,459.1,502.1,440.5,502.1z"/>
	<g>
		<g>
			<g>
				<path class="st0" d="M280.7,285c-29.9,0-54.2,24.3-54.2,54.2c0,6.6,1.2,13.1,3.5,19.2l-51.8,51.9c-0.7,0.7-1.2,1.7-1.2,2.8v28.4
					c0,2.2,1.8,4,4,4h23.4c1,0,2.1-0.4,2.8-1.2l7.9-7.9c0.7-0.7,1.2-1.7,1.2-2.8v-9.7h9.7c2.2,0,4-1.8,4-4v-3.9h3.9c2.2,0,4-1.8,4-4
					v-8.5h8.5c1,0,2.1-0.4,2.8-1.2l12.6-12.6c6.1,2.3,12.6,3.5,19.2,3.5c29.9,0,54.2-24.3,54.2-54.2C335,309.3,310.6,285,280.7,285z
					 M280.7,385.5c-6.5,0-12.7-1.3-18.6-3.9c-1.5-0.7-3.2-0.3-4.3,0.8c0,0,0,0,0,0l-13.3,13.3h-10.8c-2.2,0-4,1.8-4,4v8.5h-3.9
					c-2.2,0-4,1.8-4,4v3.9h-9.7c-2.2,0-4,1.8-4,4v12l-5.6,5.6h-17.8v-5.6l48.3-48.3c1.4-1.4,1.4-3.6,0-5c-1.4-1.4-3.6-1.4-5,0
					l-43.3,43.3v-7.1l52.5-52.6c0,0,0,0,0,0c1.1-1.1,1.5-2.8,0.8-4.3c-2.6-5.9-3.9-12.1-3.9-18.6c0-25.5,20.8-46.3,46.3-46.3
					c25.5,0,46.3,20.8,46.3,46.3C327.1,364.8,306.3,385.5,280.7,385.5z"/>
			</g>
		</g>
		<g>
			<g>
				<path class="st0" d="M297.2,307.9c-8.2,0-14.8,6.6-14.8,14.8s6.6,14.8,14.8,14.8s14.8-6.6,14.8-14.8S305.4,307.9,297.2,307.9z
					 M297.2,329.6c-3.8,0-6.9-3.1-6.9-6.9s3.1-6.9,6.9-6.9s6.9,3.1,6.9,6.9S301.1,329.6,297.2,329.6z"/>
			</g>
		</g>
	</g>
</g>
</svg>
