<svg id="Layer_1" data-name="Layer 1" xmlns="http://www.w3.org/2000/svg" viewBox="0 0 127.68 150.68"><defs><style>.cls-1{fill:#fff;}</style></defs><title>speed</title><path class="cls-1" d="M71.5,150.68c-2.61-.38-5.23-0.68-7.82-1.17a62.4,62.4,0,0,1-34.13-18.63,63.46,63.46,0,0,1-12-70.36A63,63,0,0,1,43.67,31.67a61.26,61.26,0,0,1,27.56-8.46c0.62,0,1.25-.14,1.92-0.21,0-.55.06-1,0.06-1.43s0-.76-0.06-1.5c-2.16,0-4.26.16-6.34,0A9.9,9.9,0,0,1,58,11.56C57.45,6.35,60.22,2,65,.5,65.49,0.34,66,.17,66.5,0H84.75c3,0.77,5.57,2.15,7.18,4.91,4.08,7-.75,15.12-9.1,15.32-1.52,0-3,0-4.67,0V23c2.46,0.28,4.94.48,7.4,0.87a62.5,62.5,0,0,1,32.88,15.82A61.81,61.81,0,0,1,138.1,74c3.6,18.19.1,35-10.79,50.06a62.42,62.42,0,0,1-38.59,25.2c-2.48.54-5,.75-7.55,1.12-0.48.07-1,.18-1.43,0.27H71.5Zm4.12-4.87a58.95,58.95,0,1,0-58.94-59A59.12,59.12,0,0,0,75.63,145.81ZM78,15.3c2.07,0,3.89.07,5.69,0a5.19,5.19,0,0,0,4.84-5.16A5,5,0,0,0,83.87,5q-8.29-.19-16.6,0a5,5,0,0,0-4.56,4.93,5.12,5.12,0,0,0,4.35,5.29c2,0.2,4,0,6.14,0v-5.1H78V15.3Z" transform="translate(-11.79)"/><path class="cls-1" d="M121.23,36.2l-3.49-3.6c2.66-2.33,4.56-6.13,9-5.32,4.13,0.75,6.86,3.78,8.24,7.45,1.78,4.72-2.33,7.07-4.88,9.82L126.52,41c0.94-.88,2.08-1.88,3.15-3a1.79,1.79,0,0,0,0-2.92c-0.77-.82-1.58-1.61-2.39-2.39a1.78,1.78,0,0,0-2.83,0C123.43,33.85,122.4,35,121.23,36.2Z" transform="translate(-11.79)"/><path class="cls-1" d="M24.93,41.2L21.4,44.74C19,42,15.17,40.06,16.08,35.62a11.07,11.07,0,0,1,7.43-8.09c4.73-1.74,7.07,2.35,9.87,5L29.67,36c-0.78-.88-1.73-2-2.77-3.12s-1.93-1.16-3.13,0c-0.67.64-1.32,1.31-2,2-1.31,1.34-1.33,2,0,3.34C22.76,39.21,23.82,40.15,24.93,41.2Z" transform="translate(-11.79)"/><path class="cls-1" d="M75.68,41.63V37c26-.75,51.25,22,49.84,52.24h-1.68c-12.21,0-24.42,0-36.62,0a2,2,0,0,0-2.33,1.51,10,10,0,0,1-11.25,6A10.1,10.1,0,1,1,85,83.17c0.3,0.78.51,1.3,1.56,1.3,11,0,22.06,0,33.09,0,0.29,0,.57,0,0.85-0.05C120.66,67.54,105.32,42.16,75.68,41.63ZM75.62,92.09a5.24,5.24,0,1,0-5.24-5.24A5.31,5.31,0,0,0,75.62,92.09Z" transform="translate(-11.79)"/><path class="cls-1" d="M99.1,132.39l-3.56-6.22,4.18-2.43,3.61,6.18Z" transform="translate(-11.79)"/><path class="cls-1" d="M55.73,47.52L51.51,50,48,43.77l4.19-2.43Z" transform="translate(-11.79)"/><path class="cls-1" d="M55.73,126.16l-3.58,6.19L47.92,130l3.6-6.22Z" transform="translate(-11.79)"/><path class="cls-1" d="M38.73,62.74L36.31,67l-6.2-3.58,2.43-4.2Z" transform="translate(-11.79)"/><path class="cls-1" d="M112.52,110.94l2.43-4.19,6.2,3.57-2.44,4.21Z" transform="translate(-11.79)"/><path class="cls-1" d="M32.53,114.53l-2.42-4.2,6.18-3.57L38.73,111Z" transform="translate(-11.79)"/><path class="cls-1" d="M31.57,84.52v4.61h-7V84.52h7Z" transform="translate(-11.79)"/><path class="cls-1" d="M78,131v7H73.29v-7H78Z" transform="translate(-11.79)"/></svg>